<?xml version="1.0" encoding="UTF-8" standalone="no"?>
<!-- Created with Inkscape (http://www.inkscape.org/) -->

<svg
   xmlns:dc="http://purl.org/dc/elements/1.1/"
   xmlns:cc="http://creativecommons.org/ns#"
   xmlns:rdf="http://www.w3.org/1999/02/22-rdf-syntax-ns#"
   xmlns:svg="http://www.w3.org/2000/svg"
   xmlns="http://www.w3.org/2000/svg"
   xmlns:xlink="http://www.w3.org/1999/xlink"
   xmlns:sodipodi="http://sodipodi.sourceforge.net/DTD/sodipodi-0.dtd"
   xmlns:inkscape="http://www.inkscape.org/namespaces/inkscape"
   width="512"
   height="512"
   id="svg5810"
   version="1.1"
   inkscape:version="0.48.5 r10040"
   sodipodi:docname="logo.svg"
   inkscape:export-filename="E:\Private\Dropbox\Besace\minni\minni-7\gribouillis\logo-fav-black-512.png"
   inkscape:export-xdpi="90"
   inkscape:export-ydpi="90">
  <defs
     id="defs5812">
    <linearGradient
       id="linearGradient6466">
      <stop
         id="stop6474"
         offset="0"
         style="stop-color:#2483dd;stop-opacity:1;" />
      <stop
         style="stop-color:#48a6ff;stop-opacity:1;"
         offset="1"
         id="stop6470" />
    </linearGradient>
    <linearGradient
       inkscape:collect="always"
       xlink:href="#linearGradient6466"
       id="linearGradient6472"
       x1="-1098.7071"
       y1="220.93354"
       x2="-649.86417"
       y2="220.93354"
       gradientUnits="userSpaceOnUse"
       gradientTransform="translate(1707.5036,578.64409)" />
  </defs>
  <sodipodi:namedview
     id="base"
     pagecolor="#ffffff"
     bordercolor="#666666"
     borderopacity="1.0"
     inkscape:pageopacity="0.0"
     inkscape:pageshadow="2"
     inkscape:zoom="0.35"
     inkscape:cx="1330.6459"
     inkscape:cy="-0.6250287"
     inkscape:document-units="px"
     inkscape:current-layer="layer1"
     showgrid="false"
     inkscape:showpageshadow="false"
     borderlayer="true"
     inkscape:window-width="1680"
     inkscape:window-height="1028"
     inkscape:window-x="1672"
     inkscape:window-y="-8"
     inkscape:window-maximized="1" />
  <metadata
     id="metadata5815">
    <rdf:RDF>
      <cc:Work
         rdf:about="">
        <dc:format>image/svg+xml</dc:format>
        <dc:type
           rdf:resource="http://purl.org/dc/dcmitype/StillImage" />
        <dc:title></dc:title>
      </cc:Work>
    </rdf:RDF>
  </metadata>
  <g
     inkscape:label="Layer 1"
     inkscape:groupmode="layer"
     id="layer1"
     transform="translate(0,-540.36218)">
    <rect
       style="fill:#48a6ff;fill-opacity:1;stroke:none;display:inline"
       id="rect3953-1-8-8"
       width="512"
       height="512"
       x="20.177011"
       y="1109.0405" />
    <path
       style="fill:#48a6ff;fill-opacity:1;stroke:#ffffff;stroke-width:27.65615654;stroke-miterlimit:4;stroke-opacity:1;stroke-dasharray:none;display:inline"
       d="m 309.073,1170.3841 c -17.15668,0.109 -34.95483,2.1769 -53.04229,6.4016 -115.75974,27.0382 -200.587142,131.7711 -189.467442,233.9294 11.1196,102.1585 114.000472,163.0597 229.760212,136.0218 7.51454,-1.7552 14.87386,-3.8523 22.10992,-6.2404 l 95.54067,19.2049 -8.06931,-68.2931 c 54.66832,-46.4634 87.01922,-113.0686 79.88622,-178.6008 -9.3823,-86.1962 -84.07193,-143.0123 -176.71798,-142.4234 z"
       id="path3757-3-6"
       inkscape:connector-curvature="0" />
    <g
       transform="matrix(-0.32171182,2.63607,-2.63607,-0.32171182,992.56675,783.40487)"
       style="font-size:40px;font-style:normal;font-weight:normal;line-height:125%;letter-spacing:0px;word-spacing:0px;fill:#ffffff;fill-opacity:1;stroke:none;display:inline;font-family:Sans"
       id="text3784-8-6">
      <path
         d="m 235.29959,231.39231 25.4959,-2.99295 c 3.26243,-0.34114 5.71475,-0.39536 7.35696,-0.16265 1.64229,0.23276 3.12633,0.88653 4.45213,1.96129 2.07378,1.6811 3.18911,3.86688 3.34598,6.55735 0.15694,2.6905 -0.67405,5.15761 -2.49296,7.40131 -1.12986,1.39384 -2.57557,2.74291 -4.33716,4.04722 -1.76149,1.30431 -4.59399,3.07843 -8.49751,5.32235 -0.7891,0.48701 -1.49396,0.88741 -2.11458,1.20122 -0.62052,0.3138 -1.1366,0.58557 -1.54821,0.81528 l 0.0386,0.36933 c 6.10862,-0.79437 12.30076,-1.83084 18.57645,-3.10942 5.21465,-1.01203 9.23771,-1.6661 12.06919,-1.96221 2.83153,-0.29609 5.19313,-0.32526 7.0848,-0.0875 1.8917,0.23778 3.33048,0.75627 4.31635,1.55546 2.20973,1.79132 3.25777,4.07748 3.14411,6.85848 -0.11364,2.78102 -1.38305,5.66733 -3.80822,8.65896 -3.059,3.77353 -9.63756,8.55294 -19.73572,14.33828 -8.98649,5.109 -15.3121,8.29073 -18.97684,9.54519 -5.21176,1.63397 -9.33047,1.22462 -12.35616,-1.22806 -1.8357,-1.4882 -3.00563,-3.15489 -3.50981,-5.00009 -0.50403,-1.84524 -0.19113,-3.46477 0.9387,-4.85857 2.06697,-2.5497 6.1913,-5.6568 12.37303,-9.32129 2.31881,-1.33147 4.86123,-2.90414 7.62731,-4.71797 l -0.0386,-0.36933 c -2.3877,0.37416 -6.35332,1.13111 -11.89689,2.27089 -9.58855,2.02949 -16.47478,3.12299 -20.65876,3.28052 -5.53156,0.36066 -9.60621,-0.52 -12.22397,-2.64201 -1.15577,-0.937 -1.94371,-2.2236 -2.36381,-3.85982 -0.41993,-1.63621 -0.4139,-3.36367 0.0181,-5.18234 0.43217,-1.81866 1.22694,-3.44191 2.38431,-4.86973 1.18511,-1.46181 5.27043,-4.34703 12.25595,-8.65566 1.4617,-0.89957 2.60086,-1.60985 3.41748,-2.13087 0.81678,-0.52098 1.5338,-0.95379 2.15109,-1.29838 l -0.0896,-0.41066 c -0.86169,0.0901 -1.63112,0.1706 -2.30829,0.24139 -0.67702,0.0708 -1.41729,0.13268 -2.22079,0.18557 -0.80335,0.0529 -1.5606,0.101 -2.27178,0.14423 -1.63432,0.13983 -5.83381,0.59455 -12.59844,1.36417 -4.65229,0.73545 -8.08188,1.03967 -10.28878,0.91262 -2.2067,-0.12702 -3.95602,-0.71415 -5.24798,-1.76139 -2.10761,-1.70862 -3.12829,-3.73317 -3.06202,-6.07367 0.0665,-2.34045 1.24334,-4.92151 3.53061,-7.74318 1.40559,-1.73376 3.89603,-4.24994 7.47132,-7.54857 3.8933,-3.82962 6.90483,-6.86701 9.0346,-9.11218 2.12996,-2.24508 3.5807,-3.84359 4.35226,-4.79551 0.57881,-0.71386 1.27352,-1.65769 2.08409,-2.8315 0.81076,-1.17371 1.62393,-2.47218 2.43955,-3.89544 0.81577,-1.42314 1.67371,-3.03743 2.57381,-4.84289 1.10785,-2.20041 2.0209,-3.88269 2.73916,-5.04686 1.26415,-1.00331 2.99708,-1.31677 5.19879,-0.94037 2.20184,0.37653 4.18661,1.28129 5.95432,2.71427 2.78772,2.25988 4.38573,5.63973 4.79403,10.13957 0.15092,2.03779 0.0484,3.88422 -0.30747,5.5393 -0.35579,1.65517 -1.06074,3.39349 -2.11487,5.21493 -1.05401,1.82153 -2.65583,4.05811 -4.80546,6.70974 -1.40543,1.73382 -4.51683,5.15502 -9.33424,10.2636 l 0.0386,0.36933 z"
         style="font-size:144px;font-variant:normal;font-stretch:normal;text-align:start;line-height:125%;writing-mode:lr-tb;text-anchor:start;fill:#ffffff;fill-opacity:1;font-family:Forte;-inkscape-font-specification:Forte"
         id="path3789-6-2"
         inkscape:connector-curvature="0" />
    </g>
    <rect
       style="fill:#0061bc;fill-opacity:1;stroke:none;display:inline"
       id="rect3953-1-8-8-3"
       width="512"
       height="512"
       x="577.12091"
       y="1115.2716" />
    <path
       style="fill:#48a6ff;fill-opacity:1;stroke:#ffffff;stroke-width:27.65615654;stroke-miterlimit:4;stroke-opacity:1;stroke-dasharray:none;display:inline"
       d="m 866.01681,1176.6153 c -17.1567,0.109 -34.9548,2.1769 -53.0423,6.4016 -115.7597,27.0382 -200.5871,131.7711 -189.4674,233.9294 11.1196,102.1585 114.0004,163.0597 229.7602,136.0218 7.5145,-1.7552 14.8738,-3.8523 22.1099,-6.2404 l 95.5406,19.2049 -8.0693,-68.2931 c 54.66849,-46.4634 87.01939,-113.0686 79.88639,-178.6008 -9.3822,-86.1962 -84.07209,-143.0123 -176.71809,-142.4234 z"
       id="path3757-3-6-8"
       inkscape:connector-curvature="0" />
    <g
       transform="matrix(-0.32171182,2.63607,-2.63607,-0.32171182,1549.5107,789.63596)"
       style="font-size:40px;font-style:normal;font-weight:normal;line-height:125%;letter-spacing:0px;word-spacing:0px;fill:#ffffff;fill-opacity:1;stroke:none;display:inline;font-family:Sans"
       id="text3784-8-6-2">
      <path
         d="m 235.29959,231.39231 25.4959,-2.99295 c 3.26243,-0.34114 5.71475,-0.39536 7.35696,-0.16265 1.64229,0.23276 3.12633,0.88653 4.45213,1.96129 2.07378,1.6811 3.18911,3.86688 3.34598,6.55735 0.15694,2.6905 -0.67405,5.15761 -2.49296,7.40131 -1.12986,1.39384 -2.57557,2.74291 -4.33716,4.04722 -1.76149,1.30431 -4.59399,3.07843 -8.49751,5.32235 -0.7891,0.48701 -1.49396,0.88741 -2.11458,1.20122 -0.62052,0.3138 -1.1366,0.58557 -1.54821,0.81528 l 0.0386,0.36933 c 6.10862,-0.79437 12.30076,-1.83084 18.57645,-3.10942 5.21465,-1.01203 9.23771,-1.6661 12.06919,-1.96221 2.83153,-0.29609 5.19313,-0.32526 7.0848,-0.0875 1.8917,0.23778 3.33048,0.75627 4.31635,1.55546 2.20973,1.79132 3.25777,4.07748 3.14411,6.85848 -0.11364,2.78102 -1.38305,5.66733 -3.80822,8.65896 -3.059,3.77353 -9.63756,8.55294 -19.73572,14.33828 -8.98649,5.109 -15.3121,8.29073 -18.97684,9.54519 -5.21176,1.63397 -9.33047,1.22462 -12.35616,-1.22806 -1.8357,-1.4882 -3.00563,-3.15489 -3.50981,-5.00009 -0.50403,-1.84524 -0.19113,-3.46477 0.9387,-4.85857 2.06697,-2.5497 6.1913,-5.6568 12.37303,-9.32129 2.31881,-1.33147 4.86123,-2.90414 7.62731,-4.71797 l -0.0386,-0.36933 c -2.3877,0.37416 -6.35332,1.13111 -11.89689,2.27089 -9.58855,2.02949 -16.47478,3.12299 -20.65876,3.28052 -5.53156,0.36066 -9.60621,-0.52 -12.22397,-2.64201 -1.15577,-0.937 -1.94371,-2.2236 -2.36381,-3.85982 -0.41993,-1.63621 -0.4139,-3.36367 0.0181,-5.18234 0.43217,-1.81866 1.22694,-3.44191 2.38431,-4.86973 1.18511,-1.46181 5.27043,-4.34703 12.25595,-8.65566 1.4617,-0.89957 2.60086,-1.60985 3.41748,-2.13087 0.81678,-0.52098 1.5338,-0.95379 2.15109,-1.29838 l -0.0896,-0.41066 c -0.86169,0.0901 -1.63112,0.1706 -2.30829,0.24139 -0.67702,0.0708 -1.41729,0.13268 -2.22079,0.18557 -0.80335,0.0529 -1.5606,0.101 -2.27178,0.14423 -1.63432,0.13983 -5.83381,0.59455 -12.59844,1.36417 -4.65229,0.73545 -8.08188,1.03967 -10.28878,0.91262 -2.2067,-0.12702 -3.95602,-0.71415 -5.24798,-1.76139 -2.10761,-1.70862 -3.12829,-3.73317 -3.06202,-6.07367 0.0665,-2.34045 1.24334,-4.92151 3.53061,-7.74318 1.40559,-1.73376 3.89603,-4.24994 7.47132,-7.54857 3.8933,-3.82962 6.90483,-6.86701 9.0346,-9.11218 2.12996,-2.24508 3.5807,-3.84359 4.35226,-4.79551 0.57881,-0.71386 1.27352,-1.65769 2.08409,-2.8315 0.81076,-1.17371 1.62393,-2.47218 2.43955,-3.89544 0.81577,-1.42314 1.67371,-3.03743 2.57381,-4.84289 1.10785,-2.20041 2.0209,-3.88269 2.73916,-5.04686 1.26415,-1.00331 2.99708,-1.31677 5.19879,-0.94037 2.20184,0.37653 4.18661,1.28129 5.95432,2.71427 2.78772,2.25988 4.38573,5.63973 4.79403,10.13957 0.15092,2.03779 0.0484,3.88422 -0.30747,5.5393 -0.35579,1.65517 -1.06074,3.39349 -2.11487,5.21493 -1.05401,1.82153 -2.65583,4.05811 -4.80546,6.70974 -1.40543,1.73382 -4.51683,5.15502 -9.33424,10.2636 l 0.0386,0.36933 z"
         style="font-size:144px;font-variant:normal;font-stretch:normal;text-align:start;line-height:125%;writing-mode:lr-tb;text-anchor:start;fill:#ffffff;fill-opacity:1;font-family:Forte;-inkscape-font-specification:Forte"
         id="path3789-6-2-6"
         inkscape:connector-curvature="0" />
    </g>
    <rect
       style="fill:#0061bc;fill-opacity:1;stroke:none;display:inline"
       id="rect3953-1-8-8-3-2"
       width="512"
       height="512"
       x="1155.5923"
       y="1114.0382" />
    <g
       transform="matrix(-0.4889458,4.0063662,-4.0063662,-0.4889458,2500.3796,486.05362)"
       style="font-size:40px;font-style:normal;font-weight:normal;line-height:125%;letter-spacing:0px;word-spacing:0px;fill:#ffffff;fill-opacity:1;stroke:none;display:inline;font-family:Sans"
       id="text3784-8-6-2-7">
      <path
         d="m 235.29959,231.39231 25.4959,-2.99295 c 3.26243,-0.34114 5.71475,-0.39536 7.35696,-0.16265 1.64229,0.23276 3.12633,0.88653 4.45213,1.96129 2.07378,1.6811 3.18911,3.86688 3.34598,6.55735 0.15694,2.6905 -0.67405,5.15761 -2.49296,7.40131 -1.12986,1.39384 -2.57557,2.74291 -4.33716,4.04722 -1.76149,1.30431 -4.59399,3.07843 -8.49751,5.32235 -0.7891,0.48701 -1.49396,0.88741 -2.11458,1.20122 -0.62052,0.3138 -1.1366,0.58557 -1.54821,0.81528 l 0.0386,0.36933 c 6.10862,-0.79437 12.30076,-1.83084 18.57645,-3.10942 5.21465,-1.01203 9.23771,-1.6661 12.06919,-1.96221 2.83153,-0.29609 5.19313,-0.32526 7.0848,-0.0875 1.8917,0.23778 3.33048,0.75627 4.31635,1.55546 2.20973,1.79132 3.25777,4.07748 3.14411,6.85848 -0.11364,2.78102 -1.38305,5.66733 -3.80822,8.65896 -3.059,3.77353 -9.63756,8.55294 -19.73572,14.33828 -8.98649,5.109 -15.3121,8.29073 -18.97684,9.54519 -5.21176,1.63397 -9.33047,1.22462 -12.35616,-1.22806 -1.8357,-1.4882 -3.00563,-3.15489 -3.50981,-5.00009 -0.50403,-1.84524 -0.19113,-3.46477 0.9387,-4.85857 2.06697,-2.5497 6.1913,-5.6568 12.37303,-9.32129 2.31881,-1.33147 4.86123,-2.90414 7.62731,-4.71797 l -0.0386,-0.36933 c -2.3877,0.37416 -6.35332,1.13111 -11.89689,2.27089 -9.58855,2.02949 -16.47478,3.12299 -20.65876,3.28052 -5.53156,0.36066 -9.60621,-0.52 -12.22397,-2.64201 -1.15577,-0.937 -1.94371,-2.2236 -2.36381,-3.85982 -0.41993,-1.63621 -0.4139,-3.36367 0.0181,-5.18234 0.43217,-1.81866 1.22694,-3.44191 2.38431,-4.86973 1.18511,-1.46181 5.27043,-4.34703 12.25595,-8.65566 1.4617,-0.89957 2.60086,-1.60985 3.41748,-2.13087 0.81678,-0.52098 1.5338,-0.95379 2.15109,-1.29838 l -0.0896,-0.41066 c -0.86169,0.0901 -1.63112,0.1706 -2.30829,0.24139 -0.67702,0.0708 -1.41729,0.13268 -2.22079,0.18557 -0.80335,0.0529 -1.5606,0.101 -2.27178,0.14423 -1.63432,0.13983 -5.83381,0.59455 -12.59844,1.36417 -4.65229,0.73545 -8.08188,1.03967 -10.28878,0.91262 -2.2067,-0.12702 -3.95602,-0.71415 -5.24798,-1.76139 -2.10761,-1.70862 -3.12829,-3.73317 -3.06202,-6.07367 0.0665,-2.34045 1.24334,-4.92151 3.53061,-7.74318 1.40559,-1.73376 3.89603,-4.24994 7.47132,-7.54857 3.8933,-3.82962 6.90483,-6.86701 9.0346,-9.11218 2.12996,-2.24508 3.5807,-3.84359 4.35226,-4.79551 0.57881,-0.71386 1.27352,-1.65769 2.08409,-2.8315 0.81076,-1.17371 1.62393,-2.47218 2.43955,-3.89544 0.81577,-1.42314 1.67371,-3.03743 2.57381,-4.84289 1.10785,-2.20041 2.0209,-3.88269 2.73916,-5.04686 1.26415,-1.00331 2.99708,-1.31677 5.19879,-0.94037 2.20184,0.37653 4.18661,1.28129 5.95432,2.71427 2.78772,2.25988 4.38573,5.63973 4.79403,10.13957 0.15092,2.03779 0.0484,3.88422 -0.30747,5.5393 -0.35579,1.65517 -1.06074,3.39349 -2.11487,5.21493 -1.05401,1.82153 -2.65583,4.05811 -4.80546,6.70974 -1.40543,1.73382 -4.51683,5.15502 -9.33424,10.2636 l 0.0386,0.36933 z"
         style="font-size:144px;font-variant:normal;font-stretch:normal;text-align:start;line-height:125%;writing-mode:lr-tb;text-anchor:start;fill:#ffffff;fill-opacity:1;font-family:Forte;-inkscape-font-specification:Forte"
         id="path3789-6-2-6-5"
         inkscape:connector-curvature="0" />
    </g>
    <rect
       style="fill:#0061bc;fill-opacity:1;stroke:none;display:inline"
       id="rect3953"
       width="131.42857"
       height="124.28571"
       x="1706.9265"
       y="656.67462" />
    <rect
       style="fill:#48a6ff;fill-opacity:1;stroke:none;display:inline"
       id="rect3953-0"
       width="131.42857"
       height="124.28571"
       x="1706.9265"
       y="804.87842" />
    <rect
       style="fill:#2d333b;fill-opacity:1;stroke:none;display:inline"
       id="rect3953-1-8"
       width="512"
       height="512"
       x="0.23022431"
       y="540.20795"
       inkscape:export-filename="E:\Private\Dropbox\Besace\minni\minni-7\gribouillis\logo-fav-black-16.png"
       inkscape:export-xdpi="2.8099999"
       inkscape:export-ydpi="2.8099999" />
    <path
       style="fill:#2d333b;fill-opacity:1;stroke:#ffffff;stroke-width:27.65615654;stroke-miterlimit:4;stroke-opacity:1;stroke-dasharray:none;display:inline"
       d="m 289.1262,601.55154 c -17.1567,0.1091 -34.9548,2.1769 -53.0423,6.4016 -115.7597,27.0382 -200.5871,131.7711 -189.4674,233.9294 11.1196,102.1585 114.0005,163.05966 229.7602,136.0218 7.5145,-1.7552 14.8739,-3.8523 22.1099,-6.2404 l 95.5407,19.2049 -8.0693,-68.2931 c 54.6683,-46.4634 87.01919,-113.0687 79.88619,-178.6008 -9.38229,-86.1962 -84.07189,-143.0123 -176.71799,-142.4234 z"
       id="path3757-3"
       inkscape:connector-curvature="0" />
    <g
       transform="matrix(-0.32171182,2.63607,-2.63607,-0.32171182,964.66288,209.68895)"
       style="font-size:40px;font-style:normal;font-weight:normal;line-height:125%;letter-spacing:0px;word-spacing:0px;fill:#ffffff;fill-opacity:1;stroke:none;display:inline;font-family:Sans"
       id="text3784-8">
      <path
         d="m 236.76194,228.1953 25.4959,-2.99295 c 3.26243,-0.34114 5.71475,-0.39536 7.35696,-0.16265 1.64229,0.23276 3.12633,0.88653 4.45213,1.96129 2.07378,1.6811 3.18911,3.86688 3.34598,6.55735 0.15694,2.6905 -0.67405,5.15761 -2.49296,7.40131 -1.12986,1.39384 -2.57557,2.74291 -4.33716,4.04722 -1.76149,1.30431 -4.59399,3.07843 -8.49751,5.32235 -0.7891,0.48701 -1.49396,0.88741 -2.11458,1.20122 -0.62052,0.3138 -1.1366,0.58557 -1.54821,0.81528 l 0.0386,0.36933 c 6.10862,-0.79437 12.30076,-1.83084 18.57645,-3.10942 5.21465,-1.01203 9.23771,-1.6661 12.06919,-1.96221 2.83153,-0.29609 5.19313,-0.32526 7.0848,-0.0875 1.8917,0.23778 3.33048,0.75627 4.31635,1.55546 2.20973,1.79132 3.25777,4.07748 3.14411,6.85848 -0.11364,2.78102 -1.38305,5.66733 -3.80822,8.65896 -3.059,3.77353 -9.63756,8.55294 -19.73572,14.33828 -8.98649,5.109 -15.3121,8.29073 -18.97684,9.54519 -5.21176,1.63397 -9.33047,1.22462 -12.35616,-1.22806 -1.8357,-1.4882 -3.00563,-3.15489 -3.50981,-5.00009 -0.50403,-1.84524 -0.19113,-3.46477 0.9387,-4.85857 2.06697,-2.5497 6.1913,-5.6568 12.37303,-9.32129 2.31881,-1.33147 4.86123,-2.90414 7.62731,-4.71797 l -0.0386,-0.36933 c -2.3877,0.37416 -6.35332,1.13111 -11.89689,2.27089 -9.58855,2.02949 -16.47478,3.12299 -20.65876,3.28052 -5.53156,0.36066 -9.60621,-0.52 -12.22397,-2.64201 -1.15577,-0.937 -1.94371,-2.2236 -2.36381,-3.85982 -0.41993,-1.63621 -0.4139,-3.36367 0.0181,-5.18234 0.43217,-1.81866 1.22694,-3.44191 2.38431,-4.86973 1.18511,-1.46181 5.27043,-4.34703 12.25595,-8.65566 1.4617,-0.89957 2.60086,-1.60985 3.41748,-2.13087 0.81678,-0.52098 1.5338,-0.95379 2.15109,-1.29838 l -0.0896,-0.41066 c -0.86169,0.0901 -1.63112,0.1706 -2.30829,0.24139 -0.67702,0.0708 -1.41729,0.13268 -2.22079,0.18557 -0.80335,0.0529 -1.5606,0.101 -2.27178,0.14423 -1.63432,0.13983 -5.83381,0.59455 -12.59844,1.36417 -4.65229,0.73545 -8.08188,1.03967 -10.28878,0.91262 -2.2067,-0.12702 -3.95602,-0.71415 -5.24798,-1.76139 -2.10761,-1.70862 -3.12829,-3.73317 -3.06202,-6.07367 0.0665,-2.34045 1.24334,-4.92151 3.53061,-7.74318 1.40559,-1.73376 3.89603,-4.24994 7.47132,-7.54857 3.8933,-3.82962 6.90483,-6.86701 9.0346,-9.11218 2.12996,-2.24508 3.5807,-3.84359 4.35226,-4.79551 0.57881,-0.71386 1.27352,-1.65769 2.08409,-2.8315 0.81076,-1.17371 1.62393,-2.47218 2.43955,-3.89544 0.81577,-1.42314 1.67371,-3.03743 2.57381,-4.84289 1.10785,-2.20041 2.0209,-3.88269 2.73916,-5.04686 1.26415,-1.00331 2.99708,-1.31677 5.19879,-0.94037 2.20184,0.37653 4.18661,1.28129 5.95432,2.71427 2.78772,2.25988 4.38573,5.63973 4.79403,10.13957 0.15092,2.03779 0.0484,3.88422 -0.30747,5.5393 -0.35579,1.65517 -1.06074,3.39349 -2.11487,5.21493 -1.05401,1.82153 -2.65583,4.05811 -4.80546,6.70974 -1.40543,1.73382 -4.51683,5.15502 -9.33424,10.2636 l 0.0386,0.36933 z"
         style="font-size:144px;font-variant:normal;font-stretch:normal;text-align:start;line-height:125%;writing-mode:lr-tb;text-anchor:start;fill:#ffffff;fill-opacity:1;font-family:Forte;-inkscape-font-specification:Forte"
         id="path3789-6"
         inkscape:connector-curvature="0" />
    </g>
    <rect
       style="fill:#48a6ff;fill-opacity:1;stroke:none;display:inline"
       id="rect3953-1-8-8-6"
       width="512"
       height="512"
       x="577.14288"
       y="543.2193" />
    <path
       style="fill:url(#linearGradient6472);fill-opacity:1;stroke:#ffffff;stroke-width:27.65600014;stroke-miterlimit:4;stroke-opacity:1;stroke-dasharray:none;display:inline"
       d="m 866.11383,604.92125 c -17.15668,0.109 -34.95483,2.1769 -53.04229,6.4016 -115.75978,27.0382 -200.58719,131.7711 -189.46749,233.9294 11.1196,102.1585 114.00052,163.05975 229.76026,136.0218 7.51454,-1.7552 14.87386,-3.8523 22.10992,-6.2404 l 95.54067,19.2049 -8.06931,-68.2931 c 54.66831,-46.4634 87.01921,-113.0686 79.88621,-178.6008 -9.3823,-86.1962 -84.07192,-143.0123 -176.71797,-142.4234 z"
       id="path3757-3-6-6"
       inkscape:connector-curvature="0" />
    <g
       transform="matrix(-0.32171182,2.63607,-2.63607,-0.32171182,1549.6075,217.94209)"
       style="font-size:40px;font-style:normal;font-weight:normal;line-height:125%;letter-spacing:0px;word-spacing:0px;fill:#ffffff;fill-opacity:1;stroke:none;display:inline;font-family:Sans"
       id="text3784-8-6-8">
      <path
         d="m 235.16904,231.43667 25.4959,-2.99295 c 3.26243,-0.34114 5.71475,-0.39536 7.35696,-0.16265 1.64229,0.23276 3.12633,0.88653 4.45213,1.96129 2.07378,1.6811 3.18911,3.86688 3.34598,6.55735 0.15694,2.6905 -0.67405,5.15761 -2.49296,7.40131 -1.12986,1.39384 -2.57557,2.74291 -4.33716,4.04722 -1.76149,1.30431 -4.59399,3.07843 -8.49751,5.32235 -0.7891,0.48701 -1.49396,0.88741 -2.11458,1.20122 -0.62052,0.3138 -1.1366,0.58557 -1.54821,0.81528 l 0.0386,0.36933 c 6.10862,-0.79437 12.30076,-1.83084 18.57645,-3.10942 5.21465,-1.01203 9.23771,-1.6661 12.06919,-1.96221 2.83153,-0.29609 5.19313,-0.32526 7.0848,-0.0875 1.8917,0.23778 3.33048,0.75627 4.31635,1.55546 2.20973,1.79132 3.25777,4.07748 3.14411,6.85848 -0.11364,2.78102 -1.38305,5.66733 -3.80822,8.65896 -3.059,3.77353 -9.63756,8.55294 -19.73572,14.33828 -8.98649,5.109 -15.3121,8.29073 -18.97684,9.54519 -5.21176,1.63397 -9.33047,1.22462 -12.35616,-1.22806 -1.8357,-1.4882 -3.00563,-3.15489 -3.50981,-5.00009 -0.50403,-1.84524 -0.19113,-3.46477 0.9387,-4.85857 2.06697,-2.5497 6.1913,-5.6568 12.37303,-9.32129 2.31881,-1.33147 4.86123,-2.90414 7.62731,-4.71797 l -0.0386,-0.36933 c -2.3877,0.37416 -6.35332,1.13111 -11.89689,2.27089 -9.58855,2.02949 -16.47478,3.12299 -20.65876,3.28052 -5.53156,0.36066 -9.60621,-0.52 -12.22397,-2.64201 -1.15577,-0.937 -1.94371,-2.2236 -2.36381,-3.85982 -0.41993,-1.63621 -0.4139,-3.36367 0.0181,-5.18234 0.43217,-1.81866 1.22694,-3.44191 2.38431,-4.86973 1.18511,-1.46181 5.27043,-4.34703 12.25595,-8.65566 1.4617,-0.89957 2.60086,-1.60985 3.41748,-2.13087 0.81678,-0.52098 1.5338,-0.95379 2.15109,-1.29838 l -0.0896,-0.41066 c -0.86169,0.0901 -1.63112,0.1706 -2.30829,0.24139 -0.67702,0.0708 -1.41729,0.13268 -2.22079,0.18557 -0.80335,0.0529 -1.5606,0.101 -2.27178,0.14423 -1.63432,0.13983 -5.83381,0.59455 -12.59844,1.36417 -4.65229,0.73545 -8.08188,1.03967 -10.28878,0.91262 -2.2067,-0.12702 -3.95602,-0.71415 -5.24798,-1.76139 -2.10761,-1.70862 -3.12829,-3.73317 -3.06202,-6.07367 0.0665,-2.34045 1.24334,-4.92151 3.53061,-7.74318 1.40559,-1.73376 3.89603,-4.24994 7.47132,-7.54857 3.8933,-3.82962 6.90483,-6.86701 9.0346,-9.11218 2.12996,-2.24508 3.5807,-3.84359 4.35226,-4.79551 0.57881,-0.71386 1.27352,-1.65769 2.08409,-2.8315 0.81076,-1.17371 1.62393,-2.47218 2.43955,-3.89544 0.81577,-1.42314 1.67371,-3.03743 2.57381,-4.84289 1.10785,-2.20041 2.0209,-3.88269 2.73916,-5.04686 1.26415,-1.00331 2.99708,-1.31677 5.19879,-0.94037 2.20184,0.37653 4.18661,1.28129 5.95432,2.71427 2.78772,2.25988 4.38573,5.63973 4.79403,10.13957 0.15092,2.03779 0.0484,3.88422 -0.30747,5.5393 -0.35579,1.65517 -1.06074,3.39349 -2.11487,5.21493 -1.05401,1.82153 -2.65583,4.05811 -4.80546,6.70974 -1.40543,1.73382 -4.51683,5.15502 -9.33424,10.2636 l 0.0386,0.36933 z"
         style="font-size:144px;font-variant:normal;font-stretch:normal;text-align:start;line-height:125%;writing-mode:lr-tb;text-anchor:start;fill:#ffffff;fill-opacity:1;font-family:Forte;-inkscape-font-specification:Forte"
         id="path3789-6-2-8"
         inkscape:connector-curvature="0" />
    </g>
  </g>
</svg>
