<svg version="1.1" xmlns="http://www.w3.org/2000/svg" viewBox="0 0 512 512" enable-background="new 0 0 512 512">
  <path d="M50,147.336v217.328h412V147.336H50z M323.081,188.178h39.517v33.296h-39.517V188.178z
M333.649,239.851v33.297h-39.515v-33.297H333.649z M265.188,188.178h39.515v33.296h-39.515V188.178z M275.757,239.851v33.297
h-39.515v-33.297H275.757z M207.296,188.178h39.515v33.296h-39.515V188.178z M217.864,239.851v33.297h-39.516v-33.297H217.864z
M149.402,188.178h39.516v33.296h-39.516V188.178z M91.51,188.178h39.515v33.296H91.51V188.178z M91.51,239.851h68.461v33.297H91.51
V239.851z M352.027,324.822H159.971v-33.297h192.057V324.822z M420.49,273.147h-68.463v-33.297h68.463V273.147z M420.49,221.474
h-39.516v-33.296h39.516V221.474z"></path>
</svg>
