<svg version="1.1" xmlns="http://www.w3.org/2000/svg" x="0px" y="0px" viewBox="0 0 512 512" enable-background="new 0 0 512 512">
  <path  d="M301.1,392.786l-70.024,48.323c-52.488,36.222-124.406,23.038-160.63-29.451 c-36.225-52.492-23.038-124.406,29.451-160.631l70.023-48.322l31.494,45.636l-70.021,48.322 c-27.242,18.8-34.109,56.256-15.31,83.499c18.798,27.242,56.257,34.111,83.499,15.311l70.024-48.323L301.1,392.786z M392.413,301.82 l48.745-69.729c36.54-52.27,23.787-124.263-28.485-160.804c-52.271-36.54-124.267-23.786-160.805,28.485l-48.745,69.73 l45.447,31.768l48.745-69.73c18.965-27.129,56.462-33.771,83.59-14.808c27.129,18.964,33.772,56.462,14.808,83.591l-48.744,69.729 L392.413,301.82z M350.782,390.58l-28.138,4.008l8.576,60.242l28.138-4.004L350.782,390.58z M393.944,323.29l-4.006,28.138 l60.242,8.576l4.008-28.137L393.944,323.29z M403.611,424.121l20.092-20.102L380.669,361l-20.093,20.101L403.611,424.121z"></path>
</svg>
