<svg width="16" height="16" viewBox="0 0 16 16"
xmlns="http://www.w3.org/2000/svg">
  <path d="m9.94297,7.06517c-0.42067,1.23923 -0.78926,2.49727 -1.25029,3.72197c-0.21008,0.70882 -1.08016,1.14851 -1.7471,0.76175c-0.8753,-0.48528 -0.90697,-1.59971 -1.01019,-2.47979c-0.02593,-0.32411 -0.05248,-1.17249 -0.21519,-0.4129c-0.46267,1.39881 -0.635,2.89125 -1.25599,4.23514c-0.26819,0.75975 -1.32448,0.96767 -1.85307,0.34726c-0.82673,-0.8674 -0.87863,-2.14915 -1.04042,-3.27094c-0.08927,-1.18921 -0.26266,-2.39581 -0.09817,-3.58447c0.09092,-0.80729 0.92902,-1.51875 1.74332,-1.24101c0.60278,0.32734 0.56847,1.155 0.71115,1.74157c0.10153,0.57499 0.07498,1.22624 0.24545,1.75435c0.48026,-1.55015 0.65039,-3.26242 1.4098,-4.73735c0.27293,-0.55576 0.92264,-1.04018 1.55118,-0.74282c0.63923,0.23591 0.9664,0.90031 1.015,1.54634c0.10943,0.66674 0.18562,1.3386 0.26242,2.00966c0.26823,-0.40167 0.42049,-1.07246 0.62016,-1.5845c0.32597,-0.79912 0.41232,-1.72028 0.95839,-2.41319c0.49551,-0.56459 1.42553,-0.33277 1.72508,0.32023c0.53728,0.97467 0.76401,2.0831 1.20563,3.1015c0.34287,1.06295 1.02668,1.95285 1.70856,2.8175c0.33188,0.59371 -0.37825,1.22803 -0.90343,1.41808c-1.02317,0.3192 -2.17065,-0.29804 -2.63958,-1.22865c-0.43533,-0.73423 -0.72956,-1.53847 -1.0523,-2.32546c-0.09308,-0.06825 -0.05616,0.19908 -0.09047,0.24559l0.00003,0.00014z"/>
</svg>