<?xml version="1.0" standalone="no"?>
<!DOCTYPE svg PUBLIC "-//W3C//DTD SVG 20010904//EN"
 "http://www.w3.org/TR/2001/REC-SVG-20010904/DTD/svg10.dtd">
<svg version="1.0" xmlns="http://www.w3.org/2000/svg"
 width="16.000000pt" height="16.000000pt" viewBox="0 0 16.000000 16.000000"
 preserveAspectRatio="xMidYMid meet">
<metadata>
Created by potrace 1.11, written by Peter Selinger 2001-2013
</metadata>
<g transform="translate(0.000000,16.000000) scale(0.003125,-0.003125)"
fill="#000000" stroke="none">
<path d="M2675 4359 c-932 -98 -1784 -784 -2020 -1628 -48 -174 -59 -256 -59
-446 0 -199 13 -288 66 -455 126 -395 428 -711 841 -879 183 -75 344 -111 576
-132 225 -20 530 15 794 92 l108 32 397 -81 c218 -44 399 -79 401 -76 2 2 -10
129 -28 283 l-33 279 54 48 c268 242 435 455 570 729 129 263 187 503 188 773
0 406 -146 755 -432 1028 -248 236 -571 382 -951 429 -129 16 -340 18 -472 4z
m212 -514 c64 -32 129 -95 218 -210 359 -466 438 -551 655 -704 80 -57 151
-114 159 -128 31 -60 -18 -193 -99 -266 -71 -64 -161 -91 -278 -84 -99 5 -148
20 -229 68 -69 42 -218 188 -342 337 -52 61 -98 112 -102 112 -4 0 -8 -186 -9
-412 0 -246 -5 -438 -11 -475 -22 -125 -102 -204 -214 -211 -108 -7 -189 34
-266 137 -42 56 -122 215 -175 348 -16 40 -32 73 -36 73 -12 0 -9 -146 8 -421
19 -306 15 -551 -11 -622 -32 -90 -104 -140 -198 -139 -117 2 -239 91 -342
252 -99 153 -302 614 -379 860 -47 148 -51 283 -11 361 40 77 135 139 212 139
71 0 108 -30 181 -146 28 -44 157 -307 207 -421 17 -41 35 -56 35 -30 0 6 -9
145 -21 307 -26 373 -23 630 10 731 25 79 77 151 123 170 18 8 65 14 103 14
56 -1 80 -6 122 -28 91 -47 116 -82 234 -322 60 -122 109 -227 109 -233 0 -7
7 -12 15 -12 12 0 15 18 16 98 0 53 4 234 8 402 6 300 7 306 32 361 52 111
164 149 276 94z"/>
</g>
</svg>
