<svg width="512" height="512" viewBox="0 0 512 512" xmlns="http://www.w3.org/2000/svg">

 <g>
  <title>background</title>
  <rect fill="none" id="canvas_background" height="514" width="514" y="-1" x="-1"/>
 </g>
 <g>
  <title>Layer 1</title>
  <rect rx="30" stroke="null" id="svg_2" height="512" width="512" y="0" x="0" stroke-opacity="null" stroke-width="null" fill="#48a6fd"/>
  <path fill="#ffffff" id="svg_1" d="m310.8462,228.78402c-12.247,36.078 -22.978,72.704 -36.4,108.359c-6.116,20.636 -31.447,33.437 -50.864,22.177c-25.483,-14.128 -26.405,-46.573 -29.41,-72.195c-0.755,-9.436 -1.528,-34.135 -6.265,-12.021c-13.47,40.724 -18.487,84.174 -36.566,123.299c-7.808,22.119 -38.56,28.172 -53.949,10.11c-24.069,-25.253 -25.58,-62.569 -30.29,-95.228c-2.599,-34.622 -7.647,-69.75 -2.858,-104.356c2.647,-23.503 27.047,-44.216 50.754,-36.13c17.549,9.53 16.55,33.626 20.704,50.703c2.956,16.74 2.183,35.7 7.146,51.075c13.982,-45.13 18.935,-94.98 41.044,-137.92c7.946,-16.18 26.861,-30.283 45.16,-21.626c18.61,6.868 28.135,26.211 29.55,45.019c3.186,19.411 5.404,38.971 7.64,58.508c7.809,-11.694 12.242,-31.223 18.055,-46.13c9.49,-23.265 12.004,-50.083 27.902,-70.256c14.426,-16.437 41.502,-9.688 50.223,9.323c15.642,28.376 22.243,60.646 35.1,90.295c9.982,30.946 29.89,56.854 49.742,82.027c9.662,17.285 -11.012,35.752 -26.302,41.285c-29.788,9.293 -63.195,-8.677 -76.847,-35.77c-12.674,-21.376 -21.24,-44.79 -30.636,-67.702c-2.71,-1.987 -1.635,5.796 -2.634,7.15l0.001,0.004z"/>
 </g>
</svg>