<svg
  xmlns="http://www.w3.org/2000/svg"
  version="1.1"
  height="512" width="512"
  viewBox="0 0 512 512" >

  <path
    class="bubble"
    stroke="#FFF"
    stroke-miterlimit="4"
    stroke-width="27.65615654"
    fill="#48a6fd"
    d="m288.9,61.344c-17.157,0.1091-34.955,2.1769-53.042,6.4016-115.76,27.038-200.59,131.77-189.47,233.93s114,163.06,229.76,136.02c7.5145-1.7552,14.874-3.8523,22.11-6.2404l95.541,19.205-8.0693-68.293c54.668-46.463,87.019-113.07,79.886-178.6-9.39-86.2-84.08-143.02-176.72-142.43z" />

  <path
    class="letter"
    fill="#FFF"
    d="m286.03,213.83c2.6752,24.945,6.4072,49.797,8.2634,74.814,2.0612,14.022-9.5263,28.684-24.244,27.335-19.136-1.3829-28.672-20.51-37.563-34.984-3.064-5.4283-10.366-19.969-7.0719-5.4468,3.2306,28.059,12.267,55.405,12.302,83.785,1.4615,15.376-15.234,27.509-29.429,20.98-21.372-8.42-32.609-30.294-44.467-48.5-11.141-19.963-23.885-39.55-30.608-61.55-4.9276-14.774,3.9128-33.905,20.314-35.64,13.123,0.83365,19.199,15.505,26.41,24.556,6.4021,9.1818,11.191,20.722,18.414,28.533-4.1454-30.832-14.992-61.984-13.676-93.759,0.26587-11.867,7.6604-25.53,20.989-25.426,13.02-1.0512,24.067,7.8666,30.121,18.71,7.279,10.714,14.021,21.785,20.767,32.837,1.4264-9.1488-1.3332-22.043-1.9889-32.558-0.77384-16.527-6.6992-33.244-2.7884-49.698,4.0659-13.814,22.11-17.281,32.585-8.3391,17.203,12.62,30.083,30.07,45.975,44.221,14.533,15.723,33.601,25.687,52.432,35.227,10.559,7.6502,3.3229,24.408-4.2795,31.948-15.221,13.801-40.155,12.317-55.814-0.0875-13.491-9.2597-25.093-20.875-37.051-31.96-2.1694-0.43688,0.62824,3.9151,0.40672,5.0011z" />
</svg>
